<?xml version="1.0" encoding="utf-8"?>
<!-- Generator: Adobe Illustrator 19.1.0, SVG Export Plug-In . SVG Version: 6.00 Build 0)  -->
<svg version="1.1" id="Layer_1" xmlns="http://www.w3.org/2000/svg" xmlns:xlink="http://www.w3.org/1999/xlink" x="0px" y="0px"
	 viewBox="0 0 90.708664 22.677166" enable-background="new 0 0 90.708664 22.677166" xml:space="preserve">
<polygon fill="#0E3D59" points="12.998981,17.10577 16.663229,10.759044 15.441837,8.643468 12.998943,12.874619 9.334697,6.527892 
	19.106123,6.527892 20.327551,4.412316 5.670412,4.412316 "/>
<polygon fill="#0E3D59" points="25.213264,17.1059 23.991837,14.990325 19.106123,14.990325 23.991837,6.527892 22.770407,4.412316 
	15.441837,17.1059 "/>
<g>
	<path fill="#0E3D59" d="M27.670473,7.746213h1.404297l0.118164,1.286133h0.05957
		c0.51709-0.946289,1.286133-1.463867,2.055176-1.463867c0.369629,0,0.605957,0.044922,0.827639,0.148438l-0.295412,1.478516
		c-0.251465-0.074219-0.443848-0.118164-0.754395-0.118164c-0.576172,0-1.271484,0.398438-1.714844,1.493164v4.435547h-1.700195
		V7.746213z"/>
	<path fill="#0E3D59" d="M36.748112,10.3634c-0.014648-0.768555-0.340332-1.419922-1.315918-1.419922
		c-0.724609,0-1.404785,0.325195-2.040527,0.709961l-0.621094-1.138672c0.79834-0.50293,1.818848-0.946289,2.972168-0.946289
		c1.818359,0,2.705566,1.109375,2.705566,3.134766v4.302734h-1.389648l-0.133301-0.798828h-0.044434
		c-0.650391,0.547852-1.389648,0.976563-2.24707,0.976563c-1.271973,0-2.158691-0.857422-2.158691-2.129883
		C32.475163,11.502072,33.775944,10.688596,36.748112,10.3634z M35.16608,13.852658c0.591309,0,1.049805-0.295898,1.582031-0.798828
		v-1.625977c-1.966309,0.250977-2.617188,0.768555-2.617188,1.493164C34.130924,13.571408,34.559635,13.852658,35.16608,13.852658z"
		/>
	<path fill="#0E3D59" d="M39.793522,7.746213h1.714844l0.872559,3.770508c0.147949,0.694336,0.251465,1.375,0.384277,2.084961
		h0.059082c0.133301-0.709961,0.28125-1.405273,0.458496-2.084961l0.946289-3.770508h1.552734l0.960938,3.770508
		c0.177246,0.694336,0.325195,1.375,0.487793,2.084961h0.059082c0.133301-0.709961,0.251465-1.390625,0.384766-2.084961
		l0.87207-3.770508h1.597168l-1.848633,7.259766h-2.025391l-0.842773-3.385742
		c-0.162598-0.680664-0.280762-1.345703-0.443848-2.114258h-0.059082c-0.132813,0.768555-0.266113,1.448242-0.428711,2.128906
		l-0.828125,3.371094h-1.95166L39.793522,7.746213z"/>
</g>
</svg>
