<?xml version="1.0" encoding="utf-8"?>
<!-- Generator: Adobe Illustrator 17.1.0, SVG Export Plug-In . SVG Version: 6.00 Build 0)  -->
<!DOCTYPE svg PUBLIC "-//W3C//DTD SVG 1.1//EN" "http://www.w3.org/Graphics/SVG/1.1/DTD/svg11.dtd">
<svg version="1.1" id="Layer_1" xmlns="http://www.w3.org/2000/svg" xmlns:xlink="http://www.w3.org/1999/xlink" x="0px" y="0px"
	 viewBox="0 0 128 64" enable-background="new 0 0 128 64" xml:space="preserve">
<path fill="#2887C8" d="M44.6002,49.9335v-9.6447c0-1.9278-1.5628-3.4905-3.4905-3.4905h-2.6036
	c-1.9277,0-3.4905-1.5628-3.4905-3.4905v-2.5502c0-1.9278,1.5628-3.4905,3.4905-3.4905h12.2771
	c1.9278,0,3.4905,1.5628,3.4905,3.4905l-0.0001,29.2499c0,1.9923-1.666,3.5988-3.6552,3.487
	C22.4801,61.9136,0.5005,48.4231,0.5005,32.0149c0-16.4082,21.9797-29.8988,50.118-31.4796
	c1.9892-0.1118,3.6552,1.4947,3.6552,3.487l0,0.5072c0,1.7496-1.2993,3.2187-3.0327,3.4566
	c-20.1283,2.7624-34.6402,11.7742-35.1133,23.7198c0,0-1.3981,14.5017,24.0302,21.5886
	C42.3868,53.9156,44.6002,52.2473,44.6002,49.9335z"/>
<path fill="#2887C8" d="M58.1147,59.996c0,1.9976,1.6746,3.6077,3.6685,3.4865c21.0138-1.2775,35.1921-7.9964,42.8766-16.4209
	c0.8538-1.3092-1.046-0.1086-1.1385-0.0569c-10.6533,5.951-16.7046,8.3016-32.0287,9.1016
	c-2.0089,0.1049-3.7045-1.473-3.7045-3.4846V4.1073c0-1.8564-1.4515-3.3905-3.3055-3.4859c-0.8973-0.0462-1.8365-0.0859-2.747-0.119
	c-1.9778-0.0719-3.621,1.5091-3.621,3.4882L58.1147,59.996z"/>
<path fill="#2887C8" d="M80.5433,24.5278c0,0.4077-0.2554,0.6108-0.7661,0.6108c-1.6528,0-3.3301,0.5034-5.0313,1.5098V41.708
	c0,0.1919-0.0728,0.3594-0.2188,0.5029c-0.1455,0.144-0.3159,0.2158-0.5103,0.2158h-1.7866c-0.1948,0-0.3589-0.0718-0.4922-0.2158
	c-0.1338-0.1436-0.2007-0.311-0.2007-0.5029V23.3779c0-0.1919,0.0669-0.3594,0.2007-0.5034
	c0.1333-0.1436,0.2974-0.2158,0.4922-0.2158h1.7139c0.1938,0,0.3579,0.0723,0.4922,0.2158c0.1333,0.144,0.2002,0.3115,0.2002,0.5034
	v0.7544c1.6772-1.1499,3.3906-1.7251,5.1406-1.7251c0.5107,0,0.7661,0.2158,0.7661,0.647V24.5278z"/>
<path fill="#2887C8" d="M96.9857,41.708c0,0.1919-0.0728,0.3594-0.2188,0.5029c-0.1455,0.144-0.3159,0.2158-0.5103,0.2158h-1.6772
	c-0.1948,0-0.3643-0.0718-0.5103-0.2158c-0.146-0.1436-0.2188-0.311-0.2188-0.5029v-0.791
	c-2.042,1.1743-3.9136,1.7612-5.6147,1.7612c-1.75,0-3.1782-0.4492-4.2842-1.3477s-1.6587-2.3901-1.6587-4.4746v-0.4316
	c0-1.9883,0.6743-3.4556,2.0234-4.4028c1.3491-0.9463,3.603-1.4194,6.7632-1.4194h2.6982v-1.4375c0-1.5098-0.292-2.564-0.875-3.1631
	c-0.5835-0.5986-1.5923-0.8984-3.0264-0.8984c-1.7744,0-3.6338,0.0957-5.5781,0.2876h-0.1826c-0.4375,0-0.6563-0.1919-0.6563-0.5752
	v-1.2578c0-0.3833,0.2554-0.6113,0.7656-0.6831c1.8472-0.311,3.731-0.4673,5.6514-0.4673c4.7397,0,7.1094,2.2524,7.1094,6.7573
	V41.708z M93.7777,38.6528v-5.7866h-2.6982c-2.1636,0-3.6338,0.2578-4.4116,0.7729c-0.7778,0.5156-1.1665,1.4321-1.1665,2.7495
	v0.4312c0,1.2222,0.2734,2.0728,0.8203,2.5518c0.5469,0.48,1.3911,0.7188,2.5337,0.7188
	C90.3377,40.0903,91.9784,39.6113,93.7777,38.6528z"/>
<path fill="#2887C8" d="M126.7372,23.3779v0.1436l-3.5366,16.6768c-0.2432,1.1025-0.5347,1.7915-0.875,2.0669
	c-0.3408,0.2749-1.0698,0.4131-2.1875,0.4131c-0.9727,0-1.6406-0.1558-2.0054-0.4673c-0.3647-0.311-0.6929-1.0181-0.9844-2.1206
	l-3.1719-12.2197c-0.0488-0.1675-0.1094-0.252-0.1821-0.252c-0.0732,0-0.1343,0.0845-0.1826,0.252l-3.1719,12.2197
	c-0.2676,1.0547-0.5957,1.7495-0.9844,2.085c-0.3892,0.335-1.0571,0.5029-2.0054,0.5029c-1.1182,0-1.8472-0.1382-2.1875-0.4131
	c-0.3403-0.2754-0.6323-0.9644-0.875-2.0669l-3.5366-16.6768v-0.1436c0-0.1919,0.0669-0.3594,0.2007-0.5034
	c0.1333-0.1436,0.2974-0.2158,0.4922-0.2158h1.9688c0.3647,0,0.5708,0.1924,0.6201,0.5752l3.0259,16.3896
	c0.0483,0.2871,0.146,0.4312,0.2915,0.4312c0.1216,0,0.2188-0.144,0.292-0.4312l3.5728-13.8018
	c0.1943-0.7188,0.6802-1.0781,1.4585-1.0781h2.0415c0.7778,0,1.2637,0.3594,1.4585,1.0781l3.5732,13.8018
	c0.0728,0.2871,0.1694,0.4312,0.2915,0.4312c0.146,0,0.2427-0.144,0.2915-0.4312l3.0264-16.3896
	c0.0483-0.3828,0.2549-0.5752,0.6196-0.5752h1.9688c0.1943,0,0.3584,0.0723,0.4922,0.2158
	C126.6698,23.0186,126.7372,23.186,126.7372,23.3779z"/>
</svg>
