<?xml version="1.0" encoding="utf-8"?>
<!-- Generator: Adobe Illustrator 16.0.0, SVG Export Plug-In . SVG Version: 6.00 Build 0)  -->
<!DOCTYPE svg PUBLIC "-//W3C//DTD SVG 1.1//EN" "http://www.w3.org/Graphics/SVG/1.1/DTD/svg11.dtd">
<svg version="1.1"
	 id="Layer_1" xmlns:rdf="http://www.w3.org/1999/02/22-rdf-syntax-ns#" xmlns:cc="http://creativecommons.org/ns#" xmlns:dc="http://purl.org/dc/elements/1.1/"
	 xmlns="http://www.w3.org/2000/svg" xmlns:xlink="http://www.w3.org/1999/xlink" x="0px" y="0px" width="493.664px"
	 height="261.445px" viewBox="0 0 493.664 261.445" enable-background="new 0 0 493.664 261.445" xml:space="preserve">
<path fill="#4BAD3A" d="M76.825,153.93c7.357,29.932,38.984,57.502,142.804,70.167c98.066,11.983,161.988-18.063,183.541-32.048
	c0,0,14.57-6.408,5.826,3.496c0,0-61.771,57.106-182.948,57.676C104.848,253.805,8.707,192.633,9.299,130.86
	C8.717,69.086,104.848,7.906,226.048,8.498c121.2,0.583,182.948,57.675,182.948,57.675c8.744,9.905-5.826,3.496-5.826,3.496
	c-21.557-13.983-85.203-41.526-183.541-32.047c-96.734,9.32-128.287,42.194-138.78,64.316c-4.037,8.52-6.315,23.03-6.315,24.648
	C73.557,137.737,74.932,144.325,76.825,153.93z"/>
<text transform="matrix(1 0 0 1 135.5698 173.446)"><tspan x="0" y="0" fill="#555555" font-family="'Consolas'" font-size="128">gl</tspan><tspan x="140.75" y="0" fill="#555555" font-family="'Consolas-Bold'" font-size="128">RAW</tspan></text>
</svg>
